<?xml version="1.0" encoding="UTF-8"?>
<svg width="1440px" height="900px" viewBox="0 0 1440 900" version="1.1" xmlns="http://www.w3.org/2000/svg" xmlns:xlink="http://www.w3.org/1999/xlink">
    <!-- Generator: Sketch 43.2 (39069) - http://www.bohemiancoding.com/sketch -->
    <title>Page 1</title>
    <desc>Created with Sketch.</desc>
    <defs></defs>
    <g id="Desktop" stroke="none" stroke-width="1" fill="none" fill-rule="evenodd">
        <g id="D_Start">
            <g id="Page-1">
                <g transform="translate(908.000000, -352.000000) rotate(-270.000000) translate(-908.000000, 352.000000) translate(-1323.000000, -2229.000000)" id="Group-16">
                    <g transform="translate(0.000000, 0.166766)">
                        <rect id="Rectangle-3" fill="#1D1842" transform="translate(3033.000000, 2065.000000) rotate(-90.000000) translate(-3033.000000, -2065.000000) " x="2313" y="1615" width="1440" height="900"></rect>
                        <polygon id="Fill-9" fill="#FDA1A2" points="2217.95819 2067.78604 2991.74873 2067.78604 2991.74873 1123.52033 2217.95819 1123.52033"></polygon>
                        <path d="M1031.61086,2648.37756 C964.885001,2769.2828 650.397706,3239.7209 633.716242,3752.52586 L2999.87761,3752.52586 C2983.19615,3239.7209 2739.41324,2773.45195 2672.68738,2652.54671 C2610.84086,2540.4759 2568.42823,2423.24368 2568.42823,2423.24368 C2364.77675,1824.97122 2612.21708,1228.08292 2612.21708,1228.08292 C2688.79334,1268.42358 2764.00171,1306.01677 2837.41684,1341.1043 L2837.41684,407.590817 C2769.72346,387.633115 2735.33462,384.714713 2735.33462,384.714713 L2735.15529,384.693867 C2715.53789,382.267424 2695.49928,380.995835 2675.11871,380.995835 C2608.10093,380.995835 2544.75724,389.392495 2488.36972,407.361514 C2052.3663,502.651516 2042.73693,23.420687 2042.52424,0.8155772 L1599.14344,0.8155772 L1599.08923,0.844761222 C1599.08923,0.844761222 1598.89322,505.240555 1152.67241,407.936856 C1095.77611,389.555091 1031.7026,380.995835 963.879942,380.995835 L963.875772,380.995835 C858.444751,380.995835 764.665732,419.647987 684.386188,471.762313 C424.780909,630.189862 419.989158,1097.98472 398.303256,1279.90541 C393.302987,1321.82617 391.497218,1394.5069 389.412035,1444.53665 L390.800767,2634.47763 C390.800767,2634.47763 391.497218,2808.88969 445.407539,2913.90631 C463.519438,2949.19813 475.721929,2866.83665 481.043316,2773.80215 L610.44143,2973.57096 L980.177732,2434.35862 L1092.77761,1276.0281 C1092.77761,1276.0281 1339.52565,1820.80208 1135.87,2419.07453 C1135.87,2419.07453 1093.46155,2536.30675 1031.61086,2648.37756" id="Fill-11" fill="#1D1842"></path>
                        <path d="M1841.05678,3608.45768 C1841.27781,3608.40765 1844.03442,3607.74893 1848.75945,3606.37311 C1842.64152,3602.57502 1837.6621,3596.84244 1834.98473,3589.54644 C1828.66245,3572.32787 1837.52865,3553.20399 1854.71473,3546.77934 C1858.2929,3545.44521 1923.57164,3520.02593 1973.57433,3438.71924 C1992.77052,3401.22611 2003.05881,3348.4614 1968.37805,3286.60378 C1897.48183,3160.1369 1859.94854,3139.29117 1837.01152,3099.68429 C1821.62704,3073.11849 1807.81896,2982.9482 1862.726,2905.819 C1862.726,2905.819 2451.24387,2020.89274 2606.44404,1823.9256 C2785.61964,1596.5237 3060.0464,1218.73236 3104.53169,1147.85688 C3104.53169,1147.85688 3235.89822,962.329883 3154.57609,728.857706 L3349.19455,302.912732 C3349.19455,302.912732 3885.77885,753.180504 3514.61629,1435.52796 C3189.29855,2033.60029 2278.37386,2801.59035 2278.37386,2801.59035 C2278.37386,2801.59035 2068.46683,3005.18642 2116.42604,3112.19173 C2179.46112,3252.8462 2186.62581,3372.07127 2114.34086,3487.41487 C2099.81964,3510.58281 2081.01547,3532.19567 2061.71501,3551.18613 C1977.56954,3644.51663 1862.64676,3671.95378 1855.90745,3673.49636 C1853.40523,3674.06337 1850.90718,3674.33853 1848.45084,3674.33853 C1833.23317,3674.33853 1819.48348,3663.8573 1815.95118,3648.3981 C1811.85588,3630.43742 1823.09084,3612.55596 1841.05678,3608.45768" id="Fill-13" fill="#8E0D3C"></path>
                        <path d="M3494.2403,2916.25354 C3488.91891,2918.92596 3487.56771,2917.26247 3487.80542,2915.42804 L3437.24808,2909.61209 C3436.88108,2912.4888 3434.32048,2914.56086 3431.43041,2914.33156 C3428.34017,2914.08141 3426.08401,2911.30059 3426.48436,2908.22793 L3375.48913,2905.78481 C3375.1972,2908.04449 3373.18708,2909.67879 3370.91423,2909.49952 C3368.48291,2909.30357 3315.66106,2905.08439 3315.66106,2905.08439 C3315.54012,2905.07605 3301.11482,2992.32794 3223.17485,3024.63882 C3214.86331,3027.68647 3205.95541,3030.29636 3196.28016,3032.74364 C3194.40767,3033.1147 3192.57271,3033.51911 3190.65434,3033.81928 C3138.80835,3044.39224 3103.27683,3013.17367 3103.27683,3013.17367 C3012.92168,2929.79075 3086.59537,2820.00463 3086.59537,2820.00463 C3186.68415,2685.20363 3581.82632,2550.39846 3581.82632,2550.39846 C4045.43339,2345.06802 4178.18865,2239.79708 4178.18865,2239.79708 C4360.43364,2116.02765 4441.65986,1965.55066 4458.29962,1833.65555 C4475.51072,1697.22442 4418.03473,1551.8463 4332.0543,1444.5158 C4037.13436,1076.36353 3561.67094,808.391671 3561.67094,808.391671 C3173.25974,545.30188 2951.49636,445.450832 2837.416,407.590817 L2837.416,1341.1043 C3507.63968,1661.40312 4025.97029,1768.68358 4025.97029,1768.68358 C3786.17425,1874.99681 3252.36741,2310.67257 3252.36741,2310.67257 C3252.36741,2310.67257 3043.15684,2471.88094 2898.58276,2706.74144 C2762.12005,2928.42744 2854.09747,3069.45714 2854.09747,3069.45714 C2854.09747,3069.45714 2940.63256,3259.15329 3140.81012,3269.57615 C3222.06136,3273.81201 3289.34188,3247.92995 3340.60819,3215.68577 C3427.08906,3161.78288 3500.75441,3113.74181 3543.60075,2929.12369 C3543.77173,2928.38158 3494.2403,2916.25354 3494.2403,2916.25354 Z" id="Fill-14" fill="#EF3B33"></path>
                    </g>
                </g>
            </g>
        </g>
    </g>
</svg>